<svg xmlns="http://www.w3.org/2000/svg" viewBox="0 0 395 395">
  <defs>
    <style>
      .cls-1 {
        fill: #d1b3ff;
      }
    </style>
  </defs>
  <title>SVG_icon2.svg</title>
  <g id="container">
    <circle cx="197.5" cy="197.5" r="197.5"/>
  </g>
  <g id="box">
    <path id="d9" class="cls-1" d="M110.62,80.58A17.5,17.5,0,0,1,117,56.66h0A17.5,17.5,0,0,1,140.89,63h0a17.5,17.5,0,0,1-6.35,23.92h0a17.34,17.34,0,0,1-8.77,2.37h0A17.51,17.51,0,0,1,110.62,80.58Z" transform="translate(-2.5 -2.5)"/>
    <path id="d8" class="cls-1" d="M54.75,165.93a17.51,17.51,0,0,1-10.49-22.42h0A17.5,17.5,0,0,1,66.68,133h0a17.5,17.5,0,0,1,10.49,22.42h0A17.5,17.5,0,0,1,60.71,167h0A17.54,17.54,0,0,1,54.75,165.93Z" transform="translate(-2.5 -2.5)"/>
    <path id="d7" class="cls-1" d="M44.38,256.8h0a17.49,17.49,0,0,1,10.43-22.44h0A17.5,17.5,0,0,1,77.25,244.8h0a17.49,17.49,0,0,1-10.43,22.44h0a17.54,17.54,0,0,1-6,1.06h0A17.5,17.5,0,0,1,44.38,256.8Z" transform="translate(-2.5 -2.5)"/>
    <path id="d6" class="cls-1" d="M117.27,343.51a17.5,17.5,0,0,1-6.4-23.91h0a17.49,17.49,0,0,1,23.9-6.4h0a17.5,17.5,0,0,1,6.4,23.91h0A17.49,17.49,0,0,1,126,345.86h0A17.4,17.4,0,0,1,117.27,343.51Z" transform="translate(-2.5 -2.5)"/>
    <path id="d5" class="cls-1" d="M208.56,348.91a17.5,17.5,0,0,1,14.21-20.26h0A17.5,17.5,0,0,1,243,342.86h0a17.5,17.5,0,0,1-14.21,20.26h0a17.55,17.55,0,0,1-3,.27h0A17.5,17.5,0,0,1,208.56,348.91Z" transform="translate(-2.5 -2.5)"/>
    <path id="d4" class="cls-1" d="M302.25,308.66A17.5,17.5,0,0,1,300.1,284h0a17.51,17.51,0,0,1,24.66-2.15h0a17.51,17.51,0,0,1,2.15,24.66h0a17.46,17.46,0,0,1-13.41,6.24h0A17.41,17.41,0,0,1,302.25,308.66Z" transform="translate(-2.5 -2.5)"/>
    <path id="d3" class="cls-1" d="M330.63,200v-.15h0v-.13h0a17.5,17.5,0,0,1,17.47-17.53h0a17.49,17.49,0,0,1,17.53,17.46h0v.08h0V200h0a17.5,17.5,0,0,1-17.49,17.5h0A17.5,17.5,0,0,1,330.63,200Z" transform="translate(-2.5 -2.5)"/>
    <path id="d2" class="cls-1" d="M299.92,115.86A17.5,17.5,0,0,1,302,91.2h0a17.5,17.5,0,0,1,24.66,2.1h0a17.5,17.5,0,0,1-2.1,24.66h0a17.49,17.49,0,0,1-11.27,4.12h0A17.48,17.48,0,0,1,299.92,115.86Z" transform="translate(-2.5 -2.5)"/>
    <path id="d1" class="cls-1" d="M222.5,71.3h0a17.5,17.5,0,0,1-14.25-20.23h0a17.49,17.49,0,0,1,20.23-14.25h0a17.5,17.5,0,0,1,14.25,20.23h0a17.5,17.5,0,0,1-17.22,14.51h0A17.16,17.16,0,0,1,222.5,71.3Z" transform="translate(-2.5 -2.5)"/>
  </g>
</svg>
