<svg version="1.1" xmlns="http://www.w3.org/2000/svg" xmlns:xlink="http://www.w3.org/1999/xlink" x="0px" y="0px"
	 viewBox="0 0 400 400" style="enable-background:new 0 0 400 400;" xml:space="preserve">
<style type="text/css">
	.st0{fill:#D1B3FF;}
</style>
<g id="container">
	<g>
		<circle cx="200" cy="200" r="197.5"/>
	</g>
</g>
<g id="box">
	<path id="d9" class="st0" d="M110.6,80.6c-4.8-8.4-2-19.1,6.4-23.9l0,0l0,0l0,0c8.4-4.8,19.1-2,23.9,6.4l0,0
		c4.9,8.4,2,19.1-6.3,23.9l0,0c-2.8,1.6-5.8,2.4-8.8,2.4l0,0C119.7,89.3,113.9,86.2,110.6,80.6z"/>
	<path id="d8" class="st0" d="M54.8,165.9c-9.1-3.3-13.8-13.3-10.5-22.4l0,0c3.3-9.1,13.3-13.8,22.4-10.5l0,0
		c9.1,3.3,13.8,13.3,10.5,22.4h0c-2.6,7.1-9.3,11.5-16.4,11.5l0,0C58.7,167,56.7,166.6,54.8,165.9z"/>
	<path id="d7" class="st0" d="M44.4,256.8L44.4,256.8L44.4,256.8c-3.3-9.1,1.4-19.1,10.4-22.4l0,0c9.1-3.3,19.1,1.4,22.4,10.4l0,0
		c3.3,9.1-1.4,19.1-10.4,22.4l0,0c-2,0.7-4,1.1-6,1.1l0,0C53.7,268.3,47,263.9,44.4,256.8z"/>
	<path id="d6" class="st0" d="M117.3,343.5c-8.4-4.8-11.2-15.5-6.4-23.9l0,0c4.8-8.4,15.5-11.2,23.9-6.4l0,0
		c8.4,4.8,11.2,15.5,6.4,23.9l0,0c-3.2,5.6-9.1,8.8-15.2,8.8l0,0C123,345.9,120,345.1,117.3,343.5z"/>
	<path id="d5" class="st0" d="M208.6,348.9c-1.7-9.5,4.7-18.6,14.2-20.3l0,0c9.5-1.7,18.6,4.7,20.3,14.2l0,0
		c1.7,9.5-4.7,18.6-14.2,20.3l0,0l0,0l0,0c-1,0.2-2,0.3-3,0.3l0,0C217.4,363.4,210,357.4,208.6,348.9z"/>
	<path id="d4" class="st0" d="M302.3,308.7c-7.4-6.2-8.4-17.3-2.2-24.7h0c6.2-7.4,17.3-8.4,24.7-2.1l0,0c7.4,6.2,8.4,17.3,2.1,24.7
		l0,0c-3.5,4.1-8.4,6.2-13.4,6.2l0,0C309.5,312.8,305.5,311.4,302.3,308.7z"/>
	<path id="d3" class="st0" d="M330.6,200c0-0.1,0-0.1,0-0.2l0,0c0,0,0-0.1,0-0.1h0c0-9.7,7.8-17.5,17.5-17.5l0,0
		c9.7,0,17.5,7.8,17.5,17.5l0,0l0,0l0,0c0,0,0,0,0,0.1l0,0c0,0.1,0,0.2,0,0.3l0,0c0,9.7-7.8,17.5-17.5,17.5l0,0
		C338.5,217.5,330.6,209.7,330.6,200z"/>
	<path id="d2" class="st0" d="M299.9,115.9c-6.2-7.4-5.3-18.4,2.1-24.7l0,0c7.4-6.2,18.4-5.3,24.7,2.1l0,0
		c6.2,7.4,5.3,18.4-2.1,24.7l0,0c-3.3,2.8-7.3,4.1-11.3,4.1l0,0C308.3,122.1,303.4,120,299.9,115.9z"/>
	<path id="d1" class="st0" d="M222.5,71.3L222.5,71.3c-9.5-1.6-15.9-10.7-14.3-20.2l0,0c1.6-9.5,10.7-15.9,20.2-14.3l0,0l0,0l0,0
		c9.5,1.6,15.9,10.7,14.3,20.2l0,0c-1.5,8.5-8.9,14.5-17.2,14.5l0,0C224.5,71.6,223.5,71.5,222.5,71.3z"/>
</g>
</svg>
